# Blender v2.80 (sub 75) OBJ File: 'Baum1.blend'
# www.blender.org
o Cylinder
v 0.000000 0.000000 -0.524455
v 0.000000 1.937589 -0.409710
v 0.370846 0.000000 -0.370846
v 0.289709 1.937589 -0.289709
v 0.524455 0.000000 0.000000
v 0.371072 1.937589 0.000000
v 0.370846 0.000000 0.370846
v 0.289709 1.937589 0.289709
v -0.000000 0.000000 0.524455
v -0.000000 1.937589 0.409710
v -0.370846 0.000000 0.370846
v -0.289709 1.937589 0.289709
v -0.524455 0.000000 -0.000000
v -0.409710 1.937589 -0.000000
v -0.370846 0.000000 -0.370846
v -0.289709 1.937589 -0.289709
v -0.080056 1.134748 -0.442939
v 0.177959 1.134748 -0.336066
v 0.284832 1.134748 -0.078051
v 0.177959 1.134748 0.179963
v -0.080056 1.134748 0.286836
v -0.338070 1.134748 0.179963
v -0.444943 1.134748 -0.078051
v -0.338070 1.134748 -0.336066
v -0.040601 1.917330 0.000000
v 0.683007 2.516169 0.525725
v -0.316989 2.516169 0.850649
v -0.935027 2.516177 0.000000
v -0.316989 2.516169 -0.850649
v 0.683007 2.516169 -0.525725
v 0.122437 4.328216 1.001760
v -0.942951 4.328218 0.464616
v 0.962512 4.328206 0.154500
v -0.040601 10.175559 0.000000
v -0.203056 1.917330 0.499995
v 0.384722 1.917330 0.309011
v 0.222268 2.372292 0.809012
v 0.810047 2.372294 0.000000
v 0.384722 1.917330 -0.309011
v -0.566331 1.917330 0.000000
v -0.728790 2.372293 0.499997
v -0.203056 1.917330 -0.499995
v -0.728790 2.372293 -0.499997
v 0.222268 2.372292 -0.809012
v 0.910457 3.973702 -0.309013
v 0.547185 3.973702 0.809017
v -0.493060 4.460865 0.919088
v -0.942951 4.328218 -0.464616
v 0.547185 3.973702 -0.809017
v 0.122437 4.328216 -1.001760
v 0.647589 6.029671 0.499997
v -0.891249 6.029669 0.000000
v -0.493060 4.460865 -0.919088
v 0.647589 6.029671 -0.499997
v 0.121855 8.576477 0.499995
v 0.485129 8.576450 0.000000
v -0.465923 8.576475 0.309011
v -0.465923 8.576475 -0.309011
v 0.121855 8.576477 -0.499995
vt 0.752207 0.303357
vt 0.693699 0.366208
vt 0.655388 0.275115
vt 0.473260 0.091822
vt 0.408257 0.176716
vt 0.415168 0.054988
vt 0.835769 0.387256
vt 0.906880 0.284718
vt 0.940732 0.363204
vt 0.795224 0.173091
vt 0.906880 0.157168
vt 0.833235 0.058676
vt 0.940732 0.055271
vt 0.165732 0.249043
vt 0.254398 0.333580
vt 0.165732 0.371117
vt 0.693699 0.055271
vt 0.752207 0.158741
vt 0.655388 0.146321
vt 0.526694 0.138504
vt 0.526694 0.323621
vt 0.047525 0.478580
vt 0.036567 0.352291
vt 0.036567 0.176834
vt 0.173356 0.164269
vt 0.047525 0.054988
vt 0.986882 0.171210
vt 0.986882 0.354539
vt 0.254398 0.238812
vt 0.444275 0.269098
vt 0.306167 0.371593
vt 0.264332 0.063850
vt 0.581759 0.454550
vt 0.710824 0.642478
vt 0.763552 0.578127
vt 0.787100 0.673494
vt 0.797352 0.532526
vt 0.717449 0.506981
vt 0.705236 0.725999
vt 0.631094 0.663079
vt 0.667136 0.571690
vt 0.747614 0.846373
vt 0.698056 0.836605
vt 0.751864 0.772779
vt 0.851421 0.969284
vt 0.800210 0.905519
vt 0.877298 0.872939
vt 0.306265 0.831193
vt 0.321519 0.909201
vt 0.248734 0.901987
vt 0.576910 0.930251
vt 0.490256 0.949688
vt 0.534186 0.871777
vt 0.633318 0.521575
vt 0.584990 0.591934
vt 0.579939 0.539057
vt 0.819403 0.829000
vt 0.926178 0.947131
vt 0.228308 0.776739
vt 0.631152 0.835803
vt 0.068157 0.668549
vt 0.098823 0.598197
vt 0.126436 0.692934
vt 0.849503 0.771912
vt 0.965695 0.780177
vt 0.251322 0.988522
vt 0.083803 0.927323
vt 0.174590 0.850276
vt 0.070218 0.844021
vt 0.538939 0.650238
vt 0.177299 0.752515
vt 0.191554 0.615362
vt 0.330158 0.629012
vt 0.302547 0.534275
vt 0.408927 0.562417
vt 0.113444 0.533433
vt 0.438535 0.684307
vt 0.455045 0.577951
vt 0.433294 0.888801
vt 0.014884 0.916568
vt 0.084813 0.985267
vt 0.391487 0.665507
vt 0.280495 0.746594
vt 0.680433 0.809596
vt 0.652715 0.894564
vt 0.299538 0.774416
vt 0.321612 0.979709
vt 0.104128 0.749925
vt 0.571998 0.677057
vt 0.623090 0.746243
vt 0.698137 0.784102
vt 0.779096 0.756659
vt 0.837414 0.694776
vt 0.837414 0.608786
vt 0.795224 0.405639
vt 0.473260 0.223198
vt 0.795224 0.316309
vt 0.254398 0.196511
vt 0.795224 0.056506
vt 0.173356 0.458981
vn 0.3827 0.0001 -0.9239
vn 0.9187 -0.1059 -0.3805
vn 0.9154 -0.1352 0.3792
vn 0.3767 -0.1767 0.9093
vn -0.3807 -0.1027 0.9190
vn -0.9239 0.0033 0.3827
vn -0.9211 0.0775 -0.3815
vn -0.3816 0.0762 -0.9212
vn -0.3824 0.0393 -0.9232
vn -0.9232 0.0384 -0.3824
vn -0.9201 0.0907 0.3811
vn -0.3775 0.1642 0.9113
vn 0.3737 0.2153 0.9022
vn 0.9020 0.2162 0.3736
vn 0.9110 0.1664 -0.3773
vn 0.3810 0.0930 -0.9199
vn 0.0000 -1.0000 0.0000
vn 0.7910 -0.5141 0.3318
vn 0.9613 -0.0953 0.2584
vn 0.0513 -0.0953 0.9941
vn -0.9296 -0.0953 0.3560
vn -0.6288 -0.0841 -0.7730
vn 0.5454 -0.1107 -0.8308
vn 0.8498 -0.0232 0.5267
vn -0.1431 -0.0477 0.9886
vn -1.0000 -0.0044 0.0000
vn -0.1431 -0.0477 -0.9886
vn 0.8084 -0.0388 -0.5873
vn 0.4943 0.1020 0.8633
vn -0.7220 0.1061 0.6837
vn -0.9384 0.1173 -0.3250
vn -0.1075 0.1166 -0.9873
vn 0.9738 0.1020 -0.2033
vn 0.7818 0.2570 -0.5680
vn 0.7980 0.1647 -0.5798
vn 0.4943 0.1020 -0.8633
vn -0.2986 0.2570 -0.9191
vn -0.3059 0.1416 -0.9415
vn -0.7220 0.1061 -0.6837
vn -0.9664 0.2570 0.0000
vn -0.9863 0.1647 0.0000
vn -0.9384 0.1173 0.3250
vn -0.2986 0.2570 0.9191
vn -0.3059 0.1416 0.9415
vn -0.1075 0.1166 0.9873
vn 0.7818 0.2570 0.5680
vn 0.7980 0.1647 0.5798
vn 0.9502 0.1173 0.2886
vn 0.9757 0.1070 -0.1914
vn 0.8081 0.0488 -0.5871
vn 0.4835 0.1070 -0.8688
vn -0.9995 0.0304 0.0000
vn 0.4835 0.1070 0.8688
vn 0.8331 0.0422 0.5515
vn 0.3608 -0.0732 -0.9298
vn 0.0513 -0.0953 -0.9941
vn -0.6999 -0.0638 -0.7114
vn -0.9296 -0.0953 -0.3560
vn -0.6999 -0.0638 0.7114
vn -0.6288 -0.0841 0.7730
vn 0.3608 -0.0732 0.9298
vn 0.5454 -0.1107 0.8308
vn 0.9958 -0.0732 -0.0558
vn 0.9587 -0.1107 -0.2620
vn 0.5600 -0.5141 -0.6497
vn 0.2257 -0.6829 -0.6947
vn -0.0712 -0.5141 -0.8548
vn -0.4449 -0.5141 -0.7334
vn -0.5910 -0.6829 -0.4294
vn -0.8350 -0.5141 -0.1965
vn -0.8350 -0.5141 0.1965
vn -0.5910 -0.6829 0.4294
vn -0.4449 -0.5141 0.7334
vn 0.7910 -0.5141 -0.3318
vn 0.7305 -0.6829 0.0000
vn -0.0712 -0.5141 0.8548
vn 0.2257 -0.6829 0.6947
vn 0.5600 -0.5141 0.6497
vn 0.9599 -0.0769 -0.2696
vn 0.9490 -0.1685 0.2665
s off
f 2/1/1 18/2/1 17/3/1
f 4/4/2 19/5/2 18/6/2
f 6/7/3 20/8/3 19/9/3
f 20/8/4 10/10/4 21/11/4
f 21/11/5 12/12/5 22/13/5
f 22/14/6 14/15/6 23/16/6
f 23/17/7 16/18/7 24/19/7
f 16/18/8 17/3/8 24/19/8
f 15/20/9 17/3/9 1/21/9
f 23/16/10 15/22/10 13/23/10
f 22/14/11 13/23/11 11/24/11
f 21/25/12 11/24/12 9/26/12
f 20/8/13 9/27/13 7/28/13
f 5/29/14 20/30/14 7/31/14
f 3/32/15 19/5/15 5/29/15
f 1/21/16 18/2/16 3/33/16
f 25/34/17 36/35/17 35/36/17
f 26/37/18 36/35/18 38/38/18
f 25/34/17 35/36/17 40/39/17
f 25/34/17 40/39/17 42/40/17
f 25/34/17 42/40/17 39/41/17
f 26/42/19 38/43/19 33/44/19
f 27/45/20 37/46/20 31/47/20
f 28/48/21 41/49/21 32/50/21
f 29/51/22 43/52/22 53/53/22
f 30/54/23 44/55/23 49/56/23
f 26/42/24 33/44/24 46/57/24
f 27/45/25 31/47/25 47/58/25
f 28/48/26 32/50/26 48/59/26
f 29/51/27 53/53/27 50/60/27
f 30/61/28 49/62/28 45/63/28
f 31/47/29 51/64/29 55/65/29
f 32/50/30 47/66/30 57/67/30
f 48/59/31 52/68/31 58/69/31
f 50/60/32 53/53/32 59/70/32
f 33/71/33 54/72/33 56/73/33
f 56/73/34 59/74/34 34/75/34
f 56/73/35 54/72/35 59/74/35
f 54/72/36 50/76/36 59/74/36
f 59/70/37 58/77/37 34/78/37
f 59/70/38 53/53/38 58/77/38
f 53/53/39 48/79/39 58/77/39
f 58/69/40 57/67/40 34/80/40
f 58/69/41 52/68/41 57/67/41
f 52/68/42 32/50/42 57/67/42
f 57/67/43 55/81/43 34/80/43
f 57/67/44 47/66/44 55/81/44
f 47/58/45 31/47/45 55/65/45
f 55/82/46 56/73/46 34/75/46
f 55/82/47 51/83/47 56/73/47
f 51/83/48 33/71/48 56/73/48
f 45/63/49 54/72/49 33/71/49
f 45/63/50 49/62/50 54/72/50
f 49/62/51 50/76/51 54/72/51
f 48/59/52 32/50/52 52/68/52
f 46/57/53 51/64/53 31/47/53
f 46/57/54 33/44/54 51/64/54
f 49/84/55 44/85/55 50/60/55
f 44/85/56 29/51/56 50/60/56
f 53/53/57 43/52/57 48/79/57
f 43/86/58 28/48/58 48/59/58
f 32/50/59 41/49/59 47/66/59
f 41/49/60 27/87/60 47/66/60
f 31/47/61 37/46/61 46/57/61
f 37/46/62 26/42/62 46/57/62
f 33/71/63 38/88/63 45/63/63
f 38/88/64 30/61/64 45/63/64
f 39/41/65 44/55/65 30/54/65
f 39/41/66 42/40/66 44/55/66
f 42/40/67 29/89/67 44/55/67
f 42/40/68 43/90/68 29/89/68
f 42/40/69 40/39/69 43/90/69
f 40/39/70 28/91/70 43/90/70
f 40/39/71 41/92/71 28/91/71
f 40/39/72 35/36/72 41/92/72
f 35/36/73 27/93/73 41/92/73
f 38/38/74 39/41/74 30/54/74
f 38/38/75 36/35/75 39/41/75
f 36/35/17 25/34/17 39/41/17
f 35/36/76 37/94/76 27/93/76
f 35/36/77 36/35/77 37/94/77
f 36/35/78 26/37/78 37/94/78
f 2/1/1 4/95/1 18/2/1
f 4/4/79 6/96/79 19/5/79
f 6/7/80 8/97/80 20/8/80
f 20/8/4 8/97/4 10/10/4
f 21/11/5 10/10/5 12/12/5
f 22/14/6 12/98/6 14/15/6
f 23/17/7 14/99/7 16/18/7
f 16/18/8 2/1/8 17/3/8
f 15/20/9 24/19/9 17/3/9
f 23/16/10 24/100/10 15/22/10
f 22/14/11 23/16/11 13/23/11
f 21/25/12 22/14/12 11/24/12
f 20/8/13 21/11/13 9/27/13
f 5/29/14 19/5/14 20/30/14
f 3/32/15 18/6/15 19/5/15
f 1/21/16 17/3/16 18/2/16
